<svg xmlns="http://www.w3.org/2000/svg" viewBox="0 0 304.49 62.24"><defs><style>.cls-1{fill:#fff;}</style></defs><g id="Layer_2" data-name="Layer 2"><g id="Layer_1-2" data-name="Layer 1"><path class="cls-1" d="M34.35,1.46h7.23V13.77q0,11.46-8.87,17.57,8.86,5.94,8.87,17.56V61.21H34.35V48.9a14.3,14.3,0,0,0-3.66-10,12.69,12.69,0,0,0-9.86-4,12.68,12.68,0,0,0-9.77,4,14.19,14.19,0,0,0-3.74,10V61.21H0V48.9Q0,37.28,8.87,31.34,0,25.22,0,13.77V1.46H7.32V13.77a14.19,14.19,0,0,0,3.74,10,12.69,12.69,0,0,0,9.77,4,12.62,12.62,0,0,0,9.9-4.14,13.93,13.93,0,0,0,3.62-9.9Z"/><path class="cls-1" d="M99.77,1.46l-22,59.75H70L48,1.46h7.92l18,50.71L91.94,1.46Z"/><path class="cls-1" d="M114.75,1.46V61.21h-7.32V1.46Z"/><path class="cls-1" d="M167.44,1.46V8.61q-8.7.09-12.4,3.44a15.56,15.56,0,0,0-4.56,6.55q-1.64,4.56-1.64,12.65,0,9.39-2.06,15.11A22.9,22.9,0,0,1,140,56.13q-6.36,5.34-17.39,5.16V54.06q8.54,0,12.66-3.44a15,15,0,0,0,4.56-6.46q1.72-4.65,1.72-12.91,0-16.09,7.41-23.42Q155.64,1.21,167.44,1.46Z"/><path class="cls-1" d="M182.59,1.46V61.21h-7.32V1.46Z"/><path class="cls-1" d="M223,0a28.06,28.06,0,0,1,21,8.91q8.56,8.91,8.57,22.17a30.85,30.85,0,0,1-8.66,22.08,28.78,28.78,0,0,1-41.92,0,30.77,30.77,0,0,1-8.65-22.12A30.68,30.68,0,0,1,202,9,27.93,27.93,0,0,1,223,0Zm0,55.18a20.88,20.88,0,0,0,15.84-7,24.16,24.16,0,0,0,6.54-17.09q0-10.33-6.45-17.22a21.62,21.62,0,0,0-31.77.13,24.14,24.14,0,0,0-6.54,17.09,24.1,24.1,0,0,0,6.54,17.13A20.91,20.91,0,0,0,223,55.18Z"/><path class="cls-1" d="M283.39,0a20.49,20.49,0,0,1,15,6,20.17,20.17,0,0,1,6.07,14.89V61.21h-7.32V20.92a13.53,13.53,0,0,0-4-9.94,13.86,13.86,0,0,0-19.5,0,13.41,13.41,0,0,0-4.05,9.94V61.21H262.3V20.92A20.17,20.17,0,0,1,268.37,6,20.47,20.47,0,0,1,283.39,0Z"/></g></g></svg>